<svg width="44.000000" height="44.000000" viewBox="0 0 44 44" fill="none" xmlns="http://www.w3.org/2000/svg" xmlns:xlink="http://www.w3.org/1999/xlink">
	<desc>
			Created with Pixso.
	</desc>
	<defs>
		<clipPath id="clip291_5372">
			<rect id="Icon" width="20.000000" height="20.000000" transform="translate(12.000000 12.000000)" fill="white" fill-opacity="0"/>
		</clipPath>
	</defs>
	<rect id="Button" rx="3.000000" width="43.000000" height="43.000000" transform="translate(0.500000 0.500000)" fill="#1A1A1A" fill-opacity="1.000000"/>
	<rect id="Icon" width="20.000000" height="20.000000" transform="translate(12.000000 12.000000)" fill="#FFFFFF" fill-opacity="0"/>
	<g clip-path="url(#clip291_5372)">
		<path id="Vector" d="M30.5195 12L13.4766 12C12.6602 12 12 12.6445 12 13.4414L12 30.5547C12 31.3516 12.6602 32 13.4766 32L30.5195 32C31.3359 32 32 31.3516 32 30.5586L32 13.4414C32 12.6445 31.3359 12 30.5195 12ZM17.9336 29.043L14.9648 29.043L14.9648 19.4961L17.9336 19.4961L17.9336 29.043ZM16.4492 18.1953C15.4961 18.1953 14.7266 17.4258 14.7266 16.4766C14.7266 15.5273 15.4961 14.7578 16.4492 14.7578C17.3984 14.7578 18.168 15.5273 18.168 16.4766C18.168 17.4219 17.3984 18.1953 16.4492 18.1953ZM29.043 29.043L26.0781 29.043L26.0781 24.4023C26.0781 23.2969 26.0586 21.8711 24.5352 21.8711C22.9922 21.8711 22.7578 23.0781 22.7578 24.3242L22.7578 29.043L19.7969 29.043L19.7969 19.4961L22.6406 19.4961L22.6406 20.8008L22.6797 20.8008C23.0742 20.0508 24.043 19.2578 25.4844 19.2578C28.4883 19.2578 29.043 21.2344 29.043 23.8047L29.043 29.043Z" fill="#FFFFFF" fill-opacity="1.000000" fill-rule="nonzero"/>
	</g>
	<rect id="Button" rx="3.000000" width="43.000000" height="43.000000" transform="translate(0.500000 0.500000)" stroke="#262626" stroke-opacity="1.000000" stroke-width="1.000000"/>
</svg>
