<svg width="24.750000" height="22.326294" viewBox="0 0 24.75 22.3263" fill="none" xmlns="http://www.w3.org/2000/svg" xmlns:xlink="http://www.w3.org/1999/xlink">
	<desc>
			Created with Pixso.
	</desc>
	<defs/>
	<path id="Vector" d="M20.6748 3.7384C24.7754 7.83899 24.7754 14.4872 20.6748 18.5876M17.5811 6.83215C19.9736 9.22412 19.9736 13.1022 17.5811 15.4941M11.7559 1.28186C12.3076 0.730591 13.25 1.12097 13.25 1.90051L13.25 20.4257C13.25 21.2052 12.3076 21.5956 11.7559 21.0444L6.25 15.5381L3.63574 15.5381C2.60938 15.5381 1.64844 14.9473 1.37598 13.9581C1.13086 13.0682 1 12.131 1 11.1631C1 10.1953 1.13086 9.25806 1.37598 8.36804C1.64844 7.37903 2.60938 6.78809 3.63574 6.78809L6.25 6.78809L11.7559 1.28186Z" stroke="#FFFFFF" stroke-opacity="1.000000" stroke-width="2.000000" stroke-linejoin="round"/>
</svg>
