<svg width="24.750000" height="23.000000" viewBox="0 0 24.75 23" fill="none" xmlns="http://www.w3.org/2000/svg" xmlns:xlink="http://www.w3.org/1999/xlink">
	<desc>
			Created with Pixso.
	</desc>
	<defs/>
	<path id="Vector" d="M5.26367 20.25L7.14844 20.25C7.71191 20.25 8.27246 20.3409 8.80859 20.5194L12.4414 21.7306C12.9775 21.9091 13.5381 22 14.1016 22L18.7871 22C19.5078 22 20.207 21.7113 20.6592 21.1498C22.5928 18.7491 23.75 15.6973 23.75 12.375C23.75 11.8685 23.7227 11.3683 23.6709 10.8756C23.5439 9.68469 22.4717 8.875 21.2744 8.875L17.627 8.875C16.9062 8.875 16.4717 8.0304 16.7812 7.37903C17.3223 6.24146 17.625 4.96863 17.625 3.625C17.625 2.17529 16.4502 1 15 1C14.5166 1 14.125 1.39172 14.125 1.875L14.125 2.61389C14.125 3.28186 13.9971 3.9436 13.749 4.56372C13.3945 5.44995 12.6641 6.11658 11.8213 6.56531C10.5225 7.25732 9.38477 8.21448 8.4834 9.36462C7.90234 10.1049 7.05371 10.625 6.11328 10.625M1 16.3125C1 17.736 1.21289 19.1097 1.60742 20.4039C1.91016 21.3956 2.87109 22 3.9082 22L4.96777 22C5.4873 22 5.80859 21.4187 5.57812 20.9525C5.46484 20.723 5.35938 20.4886 5.26367 20.25C4.77148 19.0341 4.5 17.705 4.5 16.3125C4.5 14.3196 5.05566 12.4564 6.01953 10.8691C6.30566 10.3986 5.98633 9.75 5.43555 9.75L4.20801 9.75C3.2373 9.75 2.32617 10.2786 1.96973 11.1816C1.34375 12.7704 1 14.5013 1 16.3125ZM17.627 8.875L15 8.875" stroke="#FFFFFF" stroke-opacity="1.000000" stroke-width="2.000000" stroke-linejoin="round" stroke-linecap="round"/>
</svg>
