<svg width="24.000000" height="24.000000" viewBox="0 0 24 24" fill="none" xmlns="http://www.w3.org/2000/svg" xmlns:xlink="http://www.w3.org/1999/xlink">
	<desc>
			Created with Pixso.
	</desc>
	<defs>
		<filter id="filter_291_5136_dd" x="1.082031" y="3.719971" width="21.964355" height="16.080002" filterUnits="userSpaceOnUse" color-interpolation-filters="sRGB">
			<feFlood flood-opacity="0" result="BackgroundImageFix"/>
			<feGaussianBlur in="BackgroundImage" stdDeviation="4"/>
			<feComposite in2="SourceAlpha" operator="in" result="effect_backgroundBlur_1"/>
			<feBlend mode="normal" in="SourceGraphic" in2="effect_backgroundBlur_1" result="shape"/>
		</filter>
		<clipPath id="clip291_5135">
			<rect id="Frame" width="21.959999" height="16.079998" transform="translate(1.080078 3.719971)" fill="white" fill-opacity="0"/>
		</clipPath>
		<clipPath id="clip291_5134">
			<rect id="Icon" width="24.000000" height="24.000000" fill="white" fill-opacity="0"/>
		</clipPath>
	</defs>
	<g clip-path="url(#clip291_5134)">
		<rect id="Frame" width="21.959999" height="16.079998" transform="translate(1.080078 3.719971)" fill="#FFFFFF" fill-opacity="0"/>
		<g clip-path="url(#clip291_5135)">
			<g filter="url(#filter_291_5136_dd)">
				<mask id="mask_291_5136" fill="white">
					<path id="Union" d="M19.8813 3.71997L4.28174 3.71997C3.49023 3.71997 3.27051 3.93924 3.27051 4.7067L3.27051 12.966C3.27051 13.7261 3.49756 13.9527 4.24512 13.9527L19.8813 13.9527C20.6289 13.9527 20.856 13.7261 20.856 12.966L20.856 4.7067C20.856 3.94655 20.6289 3.71997 19.8813 3.71997ZM2.0249 19.8L22.1089 19.8C22.2847 19.8 22.4756 19.7927 22.644 19.7342C23.0322 19.6026 23.1494 19.281 22.9517 18.9229C22.2554 17.6511 21.5522 16.3866 20.8486 15.1221C20.6802 14.8298 20.4385 14.6836 20.1016 14.6836L4.01807 14.6836C3.68066 14.6836 3.43896 14.8298 3.27783 15.1221C2.57422 16.3866 1.87109 17.6511 1.1748 18.9229C0.977051 19.281 1.10156 19.6026 1.48975 19.7342C1.65137 19.7927 1.8418 19.8 2.0249 19.8ZM12.5176 18.3398C12.3638 18.339 12.21 18.3382 12.0562 18.3382C11.9023 18.3382 11.7485 18.339 11.5947 18.3398C11.2861 18.3414 10.9766 18.343 10.6636 18.3382C10.1948 18.3308 9.87256 18.0385 9.86523 17.6219C9.85791 17.1906 10.1875 16.8836 10.6782 16.8836C11.6016 16.8763 12.5322 16.8763 13.4556 16.8836C13.9243 16.891 14.2466 17.1833 14.2539 17.5999C14.2612 18.0239 13.9316 18.3308 13.4409 18.3382C13.1328 18.343 12.8252 18.3414 12.5176 18.3398Z" clip-rule="evenodd" fill="" fill-opacity="1.000000" fill-rule="evenodd"/>
				</mask>
				<path id="Union" d="M19.8813 3.71997L4.28174 3.71997C3.49023 3.71997 3.27051 3.93924 3.27051 4.7067L3.27051 12.966C3.27051 13.7261 3.49756 13.9527 4.24512 13.9527L19.8813 13.9527C20.6289 13.9527 20.856 13.7261 20.856 12.966L20.856 4.7067C20.856 3.94655 20.6289 3.71997 19.8813 3.71997ZM2.0249 19.8L22.1089 19.8C22.2847 19.8 22.4756 19.7927 22.644 19.7342C23.0322 19.6026 23.1494 19.281 22.9517 18.9229C22.2554 17.6511 21.5522 16.3866 20.8486 15.1221C20.6802 14.8298 20.4385 14.6836 20.1016 14.6836L4.01807 14.6836C3.68066 14.6836 3.43896 14.8298 3.27783 15.1221C2.57422 16.3866 1.87109 17.6511 1.1748 18.9229C0.977051 19.281 1.10156 19.6026 1.48975 19.7342C1.65137 19.7927 1.8418 19.8 2.0249 19.8ZM12.5176 18.3398C12.3638 18.339 12.21 18.3382 12.0562 18.3382C11.9023 18.3382 11.7485 18.339 11.5947 18.3398C11.2861 18.3414 10.9766 18.343 10.6636 18.3382C10.1948 18.3308 9.87256 18.0385 9.86523 17.6219C9.85791 17.1906 10.1875 16.8836 10.6782 16.8836C11.6016 16.8763 12.5322 16.8763 13.4556 16.8836C13.9243 16.891 14.2466 17.1833 14.2539 17.5999C14.2612 18.0239 13.9316 18.3308 13.4409 18.3382C13.1328 18.343 12.8252 18.3414 12.5176 18.3398Z" clip-rule="evenodd" fill="#E60000" fill-opacity="1.000000" fill-rule="evenodd" mask="url(#mask_291_5136)"/>
			</g>
			<path id="Union" d="M20.6371 13.756C20.7962 13.6054 20.856 13.3559 20.856 12.966L20.856 4.7067C20.856 3.94655 20.6289 3.71997 19.8813 3.71997L4.28174 3.71997C3.49023 3.71997 3.27051 3.93924 3.27051 4.7067L3.27051 12.966C3.27051 13.3545 3.32983 13.6036 3.48765 13.7544C3.6386 13.8985 3.87966 13.9527 4.24512 13.9527L19.8813 13.9527C20.2454 13.9527 20.4861 13.8989 20.6371 13.756ZM20.6373 14.8633C20.4939 14.7435 20.3172 14.6836 20.1016 14.6836L4.01807 14.6836C3.80277 14.6836 3.62644 14.7431 3.48514 14.8622C3.40501 14.9297 3.33615 15.0163 3.27783 15.1221C2.57422 16.3866 1.87109 17.6511 1.1748 18.9229C0.977051 19.281 1.10156 19.6026 1.48975 19.7342C1.65137 19.7927 1.8418 19.8 2.0249 19.8L22.1089 19.8C22.2847 19.8 22.4756 19.7927 22.644 19.7342C23.0322 19.6026 23.1494 19.281 22.9517 18.9229C22.2554 17.6511 21.5522 16.3866 20.8486 15.1221C20.788 15.0169 20.7179 14.9307 20.6373 14.8633ZM19.856 4.71997L4.28174 4.71997L4.27051 4.71999L4.27051 12.9527L19.856 12.9527L19.856 4.71997ZM1.81794 18.7898L1.81772 18.7897L1.81689 18.7896L1.81794 18.7898L1.81794 18.7898ZM9.34218 18.8L2.38572 18.8L4.11018 15.6836L20.0164 15.6836L21.7406 18.8L14.7747 18.8Q14.8781 18.6949 14.9603 18.5751Q15.0537 18.4389 15.1196 18.2837Q15.1679 18.1699 15.1989 18.0516Q15.2581 17.8253 15.2539 17.5824Q15.2496 17.341 15.1838 17.1177Q15.1517 17.0089 15.105 16.9044Q15.0361 16.7508 14.9402 16.6165Q14.8348 16.469 14.6968 16.3449Q14.6206 16.2764 14.5375 16.2178Q14.3462 16.0829 14.1182 16.0001Q13.8125 15.8891 13.4595 15.8837L12.0576 15.8782L10.6782 15.8836Q10.3437 15.8836 10.0427 15.9842Q10.0252 15.99 10.0078 15.9962Q9.76993 16.0808 9.57225 16.2218Q9.48751 16.2823 9.41016 16.353Q9.2706 16.4807 9.16535 16.6321Q9.0666 16.7743 8.99805 16.9374Q8.95436 17.0414 8.92502 17.1493Q8.86088 17.385 8.86523 17.6395Q8.86947 17.879 8.93457 18.1007Q8.96704 18.2113 9.01465 18.3174Q9.08287 18.4701 9.17792 18.6036Q9.25192 18.7076 9.34218 18.8ZM19.9767 15.6119L19.9762 15.6109L19.9763 15.6112L19.9751 15.6099Q19.9757 15.6107 19.9767 15.6119ZM12.0562 18.3382C12.21 18.3382 12.3638 18.339 12.5176 18.3398C12.8252 18.3414 13.1328 18.343 13.4409 18.3382C13.9316 18.3308 14.2612 18.0239 14.2539 17.5999C14.2466 17.1833 13.9243 16.891 13.4556 16.8836C12.5322 16.8763 11.6016 16.8763 10.6782 16.8836C10.1875 16.8836 9.85791 17.1906 9.86523 17.6219C9.87256 18.0385 10.1948 18.3308 10.6636 18.3382C10.9766 18.343 11.2861 18.3414 11.5947 18.3398C11.7485 18.339 11.9023 18.3382 12.0562 18.3382Z" clip-rule="evenodd" fill="#E60000" fill-opacity="1.000000" fill-rule="evenodd"/>
		</g>
	</g>
</svg>
