<svg width="24.000000" height="24.000000" viewBox="0 0 24 24" fill="none" xmlns="http://www.w3.org/2000/svg" xmlns:xlink="http://www.w3.org/1999/xlink">
	<desc>
			Created with Pixso.
	</desc>
	<defs>
		<filter id="filter_291_5146_dd" x="1.316895" y="3.839355" width="21.600098" height="15.834190" filterUnits="userSpaceOnUse" color-interpolation-filters="sRGB">
			<feFlood flood-opacity="0" result="BackgroundImageFix"/>
			<feGaussianBlur in="BackgroundImage" stdDeviation="4"/>
			<feComposite in2="SourceAlpha" operator="in" result="effect_backgroundBlur_1"/>
			<feBlend mode="normal" in="SourceGraphic" in2="effect_backgroundBlur_1" result="shape"/>
		</filter>
		<clipPath id="clip291_5145">
			<rect id="Frame" width="21.600000" height="15.839999" transform="translate(1.319824 3.840088)" fill="white" fill-opacity="0"/>
		</clipPath>
		<clipPath id="clip291_5144">
			<rect id="Icon" width="24.000000" height="24.000000" fill="white" fill-opacity="0"/>
		</clipPath>
	</defs>
	<g clip-path="url(#clip291_5144)">
		<rect id="Frame" width="21.600000" height="15.839999" transform="translate(1.319824 3.840088)" fill="#FFFFFF" fill-opacity="0"/>
		<g clip-path="url(#clip291_5145)">
			<g filter="url(#filter_291_5146_dd)">
				<mask id="mask_291_5146" fill="white">
					<path id="Union" d="M11.4082 6.41286L12.832 6.41286C12.832 6.18946 12.8335 5.97097 12.835 5.75547C12.8384 5.33317 12.8413 4.92232 12.832 4.50833C12.8174 4.13461 12.5156 3.8615 12.1562 3.83994C11.7964 3.82557 11.437 4.07711 11.4155 4.43646C11.3955 4.89337 11.3999 5.35028 11.4043 5.81209C11.4062 6.01131 11.4082 6.21143 11.4082 6.41286ZM1.32031 15.7128C1.29102 14.9175 1.51367 14.1747 1.7373 13.4299C1.78857 13.2593 1.83984 13.0885 1.88818 12.917C2.18311 11.8606 2.49951 10.8041 2.80859 9.7476C3.62842 6.89439 7.23779 5.72292 9.44531 7.72089C9.53857 7.80713 9.69678 7.85744 9.82617 7.85744Q10.9902 7.86298 12.1543 7.86283L12.1807 7.86282Q13.2686 7.86262 14.3564 7.85744C14.4712 7.85744 14.6226 7.80713 14.7085 7.72807C16.8584 5.75885 20.3892 6.85846 21.2661 9.60387C21.8271 11.3575 22.3306 13.1255 22.7979 14.9078C23.3369 16.9417 21.9854 19.0906 19.936 19.565C18.2319 19.9602 16.377 19.0044 15.6362 17.3298C15.1904 16.3308 14.5 15.605 13.4287 15.339C12.4507 15.1019 11.4512 15.0947 10.4878 15.4397C9.53857 15.7774 8.8916 16.4602 8.48877 17.3873C8.05029 18.4079 7.29541 19.1194 6.23828 19.4715C3.8584 20.2621 1.47852 18.645 1.32031 16.144C1.31543 16.0481 1.31689 15.9523 1.31836 15.8565C1.31934 15.8086 1.32031 15.7607 1.32031 15.7128ZM6.36035 11.1922C6.26855 11.1922 6.18213 11.1913 6.09863 11.1905C5.93994 11.1889 5.79199 11.1875 5.6416 11.1922C5.20996 11.2137 4.9082 11.53 4.92236 11.9252C4.92969 12.3062 5.23145 12.6008 5.64893 12.6224C5.79443 12.6271 5.93994 12.6256 6.09814 12.6241C6.18164 12.6232 6.26855 12.6224 6.36035 12.6224L6.36035 13.262C6.36768 13.7507 6.6626 14.0669 7.08691 14.0598C7.50391 14.0526 7.78418 13.7435 7.7915 13.2764C7.79639 13.1394 7.79492 13.0025 7.79297 12.8573C7.79248 12.7816 7.7915 12.7037 7.7915 12.6224C7.8877 12.6224 7.97559 12.6233 8.05908 12.6241L8.05908 12.6241C8.2124 12.6257 8.34912 12.627 8.48877 12.6224C8.92041 12.608 9.22949 12.3062 9.22949 11.9037C9.22949 11.5084 8.92041 11.2066 8.48877 11.1922C8.3418 11.1874 8.19482 11.1889 8.0415 11.1905L8.0415 11.1905C7.9624 11.1913 7.88184 11.1922 7.79883 11.1922C7.79883 11.1025 7.79932 11.018 7.80029 10.9368C7.80176 10.784 7.80322 10.6431 7.79883 10.5022C7.78418 10.0638 7.48242 9.75479 7.08691 9.75479C6.68408 9.7476 6.38232 10.0566 6.36768 10.4879C6.35693 10.6468 6.3584 10.8018 6.35938 10.9846C6.35986 11.0498 6.36035 11.1185 6.36035 11.1922ZM16.5278 11.8677C16.2979 12.0977 16.1323 12.2487 15.9741 12.414C15.6362 12.7661 15.6216 13.1973 15.9312 13.4992C16.2329 13.7938 16.6431 13.7723 16.9878 13.4417C17.1606 13.2764 17.3115 13.0967 17.5415 12.8524C17.7358 13.0823 17.8794 13.2764 18.0449 13.4489C18.376 13.7795 18.793 13.7938 19.0947 13.4992C19.3896 13.2117 19.3896 12.7805 19.0659 12.4427C18.8936 12.263 18.6992 12.1121 18.4766 11.9037C18.7207 11.6881 18.9077 11.5371 19.0732 11.3647C19.3896 11.0341 19.397 10.6028 19.0947 10.3082C18.8071 10.0279 18.3901 10.0351 18.0664 10.3441C17.8867 10.5166 17.7285 10.7107 17.5347 10.9263C17.3403 10.7178 17.1963 10.5597 17.0454 10.4088C16.6787 10.0423 16.2476 10.0063 15.938 10.3154C15.6289 10.6244 15.6504 11.0556 16.0171 11.4222C16.1611 11.5659 16.3335 11.6953 16.5278 11.8677Z" clip-rule="evenodd" fill="" fill-opacity="1.000000" fill-rule="evenodd"/>
				</mask>
				<path id="Union" d="M11.4082 6.41286L12.832 6.41286C12.832 6.18946 12.8335 5.97097 12.835 5.75547C12.8384 5.33317 12.8413 4.92232 12.832 4.50833C12.8174 4.13461 12.5156 3.8615 12.1562 3.83994C11.7964 3.82557 11.437 4.07711 11.4155 4.43646C11.3955 4.89337 11.3999 5.35028 11.4043 5.81209C11.4062 6.01131 11.4082 6.21143 11.4082 6.41286ZM1.32031 15.7128C1.29102 14.9175 1.51367 14.1747 1.7373 13.4299C1.78857 13.2593 1.83984 13.0885 1.88818 12.917C2.18311 11.8606 2.49951 10.8041 2.80859 9.7476C3.62842 6.89439 7.23779 5.72292 9.44531 7.72089C9.53857 7.80713 9.69678 7.85744 9.82617 7.85744Q10.9902 7.86298 12.1543 7.86283L12.1807 7.86282Q13.2686 7.86262 14.3564 7.85744C14.4712 7.85744 14.6226 7.80713 14.7085 7.72807C16.8584 5.75885 20.3892 6.85846 21.2661 9.60387C21.8271 11.3575 22.3306 13.1255 22.7979 14.9078C23.3369 16.9417 21.9854 19.0906 19.936 19.565C18.2319 19.9602 16.377 19.0044 15.6362 17.3298C15.1904 16.3308 14.5 15.605 13.4287 15.339C12.4507 15.1019 11.4512 15.0947 10.4878 15.4397C9.53857 15.7774 8.8916 16.4602 8.48877 17.3873C8.05029 18.4079 7.29541 19.1194 6.23828 19.4715C3.8584 20.2621 1.47852 18.645 1.32031 16.144C1.31543 16.0481 1.31689 15.9523 1.31836 15.8565C1.31934 15.8086 1.32031 15.7607 1.32031 15.7128ZM6.36035 11.1922C6.26855 11.1922 6.18213 11.1913 6.09863 11.1905C5.93994 11.1889 5.79199 11.1875 5.6416 11.1922C5.20996 11.2137 4.9082 11.53 4.92236 11.9252C4.92969 12.3062 5.23145 12.6008 5.64893 12.6224C5.79443 12.6271 5.93994 12.6256 6.09814 12.6241C6.18164 12.6232 6.26855 12.6224 6.36035 12.6224L6.36035 13.262C6.36768 13.7507 6.6626 14.0669 7.08691 14.0598C7.50391 14.0526 7.78418 13.7435 7.7915 13.2764C7.79639 13.1394 7.79492 13.0025 7.79297 12.8573C7.79248 12.7816 7.7915 12.7037 7.7915 12.6224C7.8877 12.6224 7.97559 12.6233 8.05908 12.6241L8.05908 12.6241C8.2124 12.6257 8.34912 12.627 8.48877 12.6224C8.92041 12.608 9.22949 12.3062 9.22949 11.9037C9.22949 11.5084 8.92041 11.2066 8.48877 11.1922C8.3418 11.1874 8.19482 11.1889 8.0415 11.1905L8.0415 11.1905C7.9624 11.1913 7.88184 11.1922 7.79883 11.1922C7.79883 11.1025 7.79932 11.018 7.80029 10.9368C7.80176 10.784 7.80322 10.6431 7.79883 10.5022C7.78418 10.0638 7.48242 9.75479 7.08691 9.75479C6.68408 9.7476 6.38232 10.0566 6.36768 10.4879C6.35693 10.6468 6.3584 10.8018 6.35938 10.9846C6.35986 11.0498 6.36035 11.1185 6.36035 11.1922ZM16.5278 11.8677C16.2979 12.0977 16.1323 12.2487 15.9741 12.414C15.6362 12.7661 15.6216 13.1973 15.9312 13.4992C16.2329 13.7938 16.6431 13.7723 16.9878 13.4417C17.1606 13.2764 17.3115 13.0967 17.5415 12.8524C17.7358 13.0823 17.8794 13.2764 18.0449 13.4489C18.376 13.7795 18.793 13.7938 19.0947 13.4992C19.3896 13.2117 19.3896 12.7805 19.0659 12.4427C18.8936 12.263 18.6992 12.1121 18.4766 11.9037C18.7207 11.6881 18.9077 11.5371 19.0732 11.3647C19.3896 11.0341 19.397 10.6028 19.0947 10.3082C18.8071 10.0279 18.3901 10.0351 18.0664 10.3441C17.8867 10.5166 17.7285 10.7107 17.5347 10.9263C17.3403 10.7178 17.1963 10.5597 17.0454 10.4088C16.6787 10.0423 16.2476 10.0063 15.938 10.3154C15.6289 10.6244 15.6504 11.0556 16.0171 11.4222C16.1611 11.5659 16.3335 11.6953 16.5278 11.8677Z" clip-rule="evenodd" fill="#E60000" fill-opacity="1.000000" fill-rule="evenodd" mask="url(#mask_291_5146)"/>
			</g>
			<path id="Union" d="M12.832 6.41286L11.4082 6.41286C11.4082 6.21143 11.4062 6.01131 11.4043 5.81209L11.4043 5.80945C11.3999 5.34854 11.3955 4.8925 11.4155 4.43646C11.437 4.07711 11.7964 3.82557 12.1562 3.83994C12.5156 3.8615 12.8174 4.13461 12.832 4.50833C12.8413 4.92232 12.8384 5.33317 12.835 5.75547C12.8335 5.97097 12.832 6.18946 12.832 6.41286ZM1.7373 13.4299C1.51367 14.1747 1.29102 14.9175 1.32031 15.7128C1.32031 15.7607 1.31934 15.8086 1.31836 15.8565C1.31689 15.9523 1.31543 16.0481 1.32031 16.144C1.47852 18.645 3.8584 20.2621 6.23828 19.4715C7.29541 19.1194 8.05029 18.4079 8.48877 17.3873C8.8916 16.4602 9.53857 15.7774 10.4878 15.4397C11.4512 15.0947 12.4507 15.1019 13.4287 15.339C14.5 15.605 15.1904 16.3308 15.6362 17.3298C16.377 19.0044 18.2319 19.9602 19.936 19.565C21.9854 19.0906 23.3369 16.9417 22.7979 14.9078C22.3306 13.1255 21.8271 11.3575 21.2661 9.60387C20.3892 6.85846 16.8584 5.75885 14.7085 7.72807C14.6226 7.80713 14.4712 7.85744 14.3564 7.85744Q13.2686 7.86262 12.1807 7.86282L12.1543 7.86283L12.0919 7.86283Q10.959 7.86283 9.82617 7.85744C9.69678 7.85744 9.53857 7.80713 9.44531 7.72089C7.23779 5.72292 3.62842 6.89439 2.80859 9.7476C2.49951 10.8041 2.18311 11.8606 1.88818 12.917C1.83984 13.0885 1.78857 13.2593 1.7373 13.4299ZM2.32031 15.6944L2.31934 15.676Q2.30469 15.269 2.41211 14.7594Q2.48389 14.4219 2.69531 13.7174L2.69531 13.7174Q2.80029 13.3677 2.85059 13.1879Q3.07031 12.4003 3.53516 10.8223Q3.69092 10.2934 3.76807 10.0285Q3.88635 9.61695 4.10096 9.26397Q4.30005 8.9365 4.58203 8.65942Q4.83598 8.40982 5.1304 8.22453Q5.48757 7.99976 5.9043 7.86963Q6.43075 7.70535 6.95059 7.72413Q7.17808 7.73235 7.4043 7.77563Q7.74608 7.84101 8.0529 7.9823Q8.44173 8.16135 8.77441 8.4623Q8.98877 8.6603 9.29492 8.76639Q9.50796 8.84023 9.72485 8.85419Q9.77541 8.85744 9.82617 8.85744L12.1523 8.86282L12.1807 8.86282L12.1831 8.86282L14.3589 8.85744Q14.6182 8.85744 14.8794 8.7642Q15.1625 8.66307 15.3707 8.47769Q15.3775 8.47159 15.3843 8.46539Q15.7047 8.17188 16.0799 7.99432Q16.3801 7.8523 16.7153 7.78446Q16.93 7.74102 17.1464 7.72975Q17.6593 7.70303 18.1816 7.85714Q18.5889 7.97726 18.9411 8.1889Q19.2342 8.365 19.4893 8.60446Q19.7982 8.89466 20.0113 9.24343Q20.2003 9.55279 20.314 9.90823Q21.0869 12.3264 21.8306 15.1615Q21.8908 15.3885 21.9093 15.6188Q21.9348 15.937 21.8804 16.2616Q21.8535 16.4215 21.8088 16.5762Q21.7005 16.9507 21.4873 17.2948Q21.3111 17.5794 21.0824 17.8125Q20.9195 17.9786 20.73 18.1185Q20.4341 18.3367 20.1036 18.468Q19.9128 18.5439 19.7104 18.5907Q19.6077 18.6146 19.5036 18.6294Q19.1538 18.6794 18.7896 18.6278Q18.6928 18.6141 18.5974 18.5936Q18.2306 18.5148 17.8853 18.3358Q17.6631 18.2206 17.4659 18.0722Q17.273 17.9271 17.104 17.7503Q16.8894 17.5257 16.7303 17.267Q16.6294 17.103 16.5508 16.9253Q16.1177 15.9551 15.4512 15.33Q15.1499 15.0476 14.8047 14.8373Q14.2866 14.5216 13.6694 14.3685Q12.1319 13.9956 10.758 14.3186Q10.4503 14.3909 10.1509 14.4982Q9.59165 14.6972 9.12362 15.026Q8.83361 15.2297 8.57861 15.4833Q7.95752 16.1005 7.57178 16.9889Q7.30578 17.608 6.84753 18.0052Q6.45535 18.3452 5.92236 18.5228Q5.44953 18.6798 4.97877 18.6738Q4.80345 18.6716 4.62842 18.6467Q4.31756 18.6026 4.03284 18.4916Q3.75763 18.3842 3.50684 18.2142Q3.26122 18.0479 3.06235 17.8373Q2.84769 17.6101 2.6875 17.3314Q2.59896 17.1777 2.53125 17.0152Q2.34953 16.5793 2.31787 16.0809Q2.31592 16.0315 2.31836 15.8732Q2.32031 15.769 2.32031 15.7128L2.32031 15.6944ZM5.59445 11.1957C5.18816 11.2371 4.90872 11.5445 4.92236 11.9252C4.92969 12.3062 5.23145 12.6008 5.64893 12.6224C5.79426 12.6271 5.9396 12.6256 6.09759 12.6241L6.09814 12.6241C6.18164 12.6232 6.26855 12.6224 6.36035 12.6224L6.36035 13.262C6.36083 13.2937 6.36251 13.3247 6.36536 13.3548C6.40646 13.7904 6.6901 14.0665 7.08691 14.0598C7.47728 14.053 7.74783 13.7818 7.7868 13.3639C7.78945 13.3354 7.79104 13.3062 7.7915 13.2764C7.79639 13.1394 7.79492 13.0025 7.79297 12.8573C7.79248 12.7816 7.7915 12.7037 7.7915 12.6224C7.8877 12.6224 7.97559 12.6233 8.05908 12.6241C8.2124 12.6257 8.34912 12.627 8.48877 12.6224C8.51413 12.6215 8.53906 12.6197 8.56354 12.6169C8.95566 12.5722 9.22949 12.2825 9.22949 11.9037C9.22949 11.5304 8.9539 11.2405 8.55976 11.1972C8.5365 11.1947 8.51282 11.193 8.48877 11.1922C8.34181 11.1874 8.19485 11.1889 8.04154 11.1905L8.0415 11.1905C7.9624 11.1913 7.88184 11.1922 7.79883 11.1922C7.79883 11.1025 7.79932 11.018 7.80029 10.9368L7.80038 10.928C7.80181 10.7785 7.80314 10.6404 7.79883 10.5022C7.798 10.4774 7.79625 10.453 7.79361 10.429C7.7497 10.0298 7.46002 9.75479 7.08691 9.75479C6.68408 9.7476 6.38232 10.0566 6.36768 10.4879C6.36662 10.5035 6.36568 10.5191 6.36485 10.5347C6.35764 10.6697 6.35838 10.8041 6.35923 10.9575L6.35938 10.9846C6.35986 11.0498 6.36035 11.1185 6.36035 11.1922C6.26855 11.1922 6.18213 11.1913 6.09863 11.1905C5.93994 11.1889 5.79199 11.1875 5.6416 11.1922C5.62571 11.193 5.60998 11.1942 5.59445 11.1957ZM8.77383 10.2175Q8.8888 10.2366 8.99954 10.2698Q9.08275 10.2947 9.16357 10.3276Q9.35899 10.4072 9.52547 10.5269Q9.62564 10.599 9.71533 10.6856Q9.84714 10.8126 9.94644 10.9613Q10.0329 11.0908 10.0947 11.2368Q10.1489 11.3641 10.1812 11.4968Q10.2295 11.6943 10.2295 11.9037Q10.2295 12.1224 10.1777 12.3281Q10.1466 12.4518 10.0967 12.5708Q10.031 12.7268 9.93784 12.8641Q9.84247 13.0046 9.71826 13.1256Q9.6278 13.2135 9.52659 13.2865Q9.36011 13.4066 9.16455 13.4864Q9.0887 13.5174 9.01069 13.5414Q8.89012 13.5784 8.76439 13.5986Q8.73613 13.7701 8.67871 13.9309Q8.5948 14.1662 8.45508 14.3616Q8.39965 14.439 8.33545 14.5102Q8.21712 14.6415 8.07706 14.7428Q7.93623 14.8445 7.77344 14.9159Q7.69257 14.9513 7.60891 14.9781Q7.36779 15.0551 7.10352 15.0596Q6.84684 15.064 6.60946 14.9984Q6.50906 14.9707 6.41211 14.9305Q6.24729 14.8622 6.10411 14.7627Q5.95544 14.6594 5.83008 14.5225Q5.76813 14.4549 5.7141 14.3815Q5.56496 14.1788 5.47607 13.9318Q5.41903 13.7727 5.39004 13.5991Q5.26622 13.5792 5.14735 13.5429Q5.05862 13.5159 4.97266 13.4798Q4.78386 13.4004 4.62242 13.2833Q4.52498 13.2127 4.4375 13.1283Q4.30969 13.0049 4.21211 12.8609Q4.12703 12.7354 4.06494 12.5943Q3.96142 12.3587 3.93344 12.1145Q3.92473 12.0385 3.92334 11.9616Q3.91561 11.7556 3.95539 11.5592Q3.98345 11.4206 4.03516 11.2869Q4.09487 11.1325 4.18161 10.9952Q4.27433 10.8484 4.39795 10.7212Q4.48857 10.628 4.59098 10.5505Q4.75291 10.4278 4.94434 10.3442Q5.15445 10.2522 5.39094 10.215Q5.41111 10.0885 5.4483 9.96725Q5.4725 9.88834 5.50391 9.81164Q5.58579 9.61197 5.70951 9.44293Q5.78131 9.34485 5.86719 9.25707Q5.9953 9.12654 6.14477 9.02863Q6.27844 8.94107 6.4292 8.87959Q6.65025 8.78949 6.87846 8.76429Q6.98195 8.75287 7.08691 8.75479Q7.3007 8.75479 7.50196 8.80501Q7.63074 8.83714 7.75439 8.88983Q7.90465 8.95374 8.03734 9.04359Q8.18278 9.14207 8.30713 9.27171Q8.39084 9.35895 8.46089 9.45604Q8.58371 9.62626 8.66455 9.82677Q8.69417 9.90024 8.71729 9.9757Q8.75357 10.0941 8.77383 10.2175ZM15.8191 11.1621C15.8671 11.2507 15.933 11.3381 16.0171 11.4222C16.1611 11.5659 16.3335 11.6953 16.5278 11.8677C16.2979 12.0977 16.1323 12.2487 15.9741 12.414C15.9194 12.471 15.8731 12.5301 15.8354 12.5904C15.64 12.9024 15.6717 13.2462 15.9312 13.4992C16.1892 13.7512 16.5266 13.7719 16.8345 13.5658C16.8866 13.5309 16.9379 13.4896 16.9878 13.4417C17.1606 13.2764 17.3115 13.0967 17.5415 12.8524C17.7358 13.0823 17.8794 13.2764 18.0449 13.4489C18.1013 13.5052 18.1602 13.5524 18.2207 13.5904C18.5147 13.7754 18.8444 13.7436 19.0947 13.4992C19.344 13.2562 19.3826 12.9105 19.193 12.6053C19.1583 12.5494 19.116 12.495 19.0659 12.4427C18.8936 12.263 18.6992 12.1121 18.4766 11.9037C18.7207 11.6881 18.9077 11.5371 19.0732 11.3647C19.1214 11.3143 19.1625 11.2616 19.1963 11.2074C19.3847 10.9059 19.3509 10.558 19.0947 10.3082C18.8556 10.0752 18.5271 10.0408 18.237 10.2135C18.1782 10.2485 18.121 10.292 18.0664 10.3441C17.8867 10.5166 17.7285 10.7107 17.5347 10.9263C17.3403 10.7178 17.1963 10.5597 17.0454 10.4088C16.9716 10.335 16.8952 10.2746 16.8177 10.2278C16.5101 10.0418 16.1852 10.0685 15.938 10.3154C15.6998 10.5536 15.6579 10.8643 15.8191 11.1621ZM17.5186 9.49679Q17.3754 9.38795 17.2207 9.30786Q16.9577 9.17187 16.6801 9.12758Q16.6175 9.11759 16.5542 9.11226Q16.3546 9.0955 16.1624 9.12567Q15.9944 9.15204 15.832 9.21429Q15.7463 9.24715 15.6652 9.28892Q15.4289 9.41067 15.2314 9.60809Q15.0306 9.80858 14.9071 10.0488Q14.87 10.121 14.8398 10.1968Q14.7715 10.368 14.7431 10.5456Q14.7143 10.7258 14.7266 10.9125Q14.7317 10.9923 14.7443 11.071Q14.7867 11.3362 14.9136 11.5879Q14.9935 11.7468 15.104 11.8931Q14.9666 12.0701 14.8745 12.2678Q14.7652 12.5029 14.7282 12.7488Q14.7141 12.8424 14.7104 12.9375Q14.7036 13.1188 14.7351 13.2932Q14.7667 13.4684 14.8369 13.6367Q14.8718 13.7205 14.9152 13.7997Q15.0393 14.0262 15.2324 14.2147Q15.4326 14.41 15.6708 14.5297Q15.737 14.563 15.8062 14.5905Q15.9721 14.6564 16.1443 14.6847Q16.3175 14.7131 16.4971 14.7035Q16.5832 14.6988 16.668 14.6855Q16.9158 14.6466 17.1519 14.5335Q17.3405 14.4431 17.5113 14.3098Q17.6857 14.4493 17.8745 14.5396Q18.0906 14.6432 18.3178 14.6835Q18.426 14.7027 18.5366 14.7075Q18.7081 14.7151 18.8739 14.6879Q19.0518 14.6588 19.2231 14.5897Q19.3024 14.5579 19.3777 14.5184Q19.603 14.4005 19.793 14.2149Q19.9641 14.0481 20.0809 13.8493Q20.1374 13.7532 20.1812 13.6496Q20.2503 13.486 20.283 13.3153Q20.3154 13.1463 20.312 12.9705Q20.3099 12.8553 20.2924 12.7425Q20.2578 12.5192 20.1631 12.3052Q20.1502 12.2762 20.1364 12.2477Q20.0496 12.0686 19.9243 11.9081Q20.0527 11.7452 20.1407 11.5628Q20.1543 11.5345 20.167 11.5058Q20.2607 11.294 20.2956 11.0729Q20.3136 10.9588 20.3159 10.8423Q20.3193 10.6691 20.2878 10.5025Q20.255 10.3282 20.1841 10.1612Q20.1447 10.068 20.095 9.98082Q19.9745 9.76926 19.793 9.59244Q19.6203 9.42406 19.4167 9.312Q19.3266 9.26244 19.2305 9.2239Q19.0687 9.15904 18.9007 9.12952Q18.7356 9.10049 18.5645 9.1056Q18.4505 9.109 18.339 9.12743Q18.1228 9.16319 17.916 9.25549Q17.8805 9.27131 17.8458 9.28861Q17.6731 9.37453 17.5186 9.49679Z" clip-rule="evenodd" fill="#E60000" fill-opacity="1.000000" fill-rule="evenodd"/>
		</g>
	</g>
</svg>
