<svg width="24.000000" height="24.000000" viewBox="0 0 24 24" fill="none" xmlns="http://www.w3.org/2000/svg" xmlns:xlink="http://www.w3.org/1999/xlink">
	<desc>
			Created with Pixso.
	</desc>
	<defs>
		<filter id="filter_291_5116_dd" x="3.839844" y="0.959961" width="16.471680" height="21.599976" filterUnits="userSpaceOnUse" color-interpolation-filters="sRGB">
			<feFlood flood-opacity="0" result="BackgroundImageFix"/>
			<feGaussianBlur in="BackgroundImage" stdDeviation="4"/>
			<feComposite in2="SourceAlpha" operator="in" result="effect_backgroundBlur_1"/>
			<feBlend mode="normal" in="SourceGraphic" in2="effect_backgroundBlur_1" result="shape"/>
		</filter>
		<clipPath id="clip291_5115">
			<rect id="Frame" width="16.471603" height="21.600000" transform="translate(3.839844 0.959961)" fill="white" fill-opacity="0"/>
		</clipPath>
		<clipPath id="clip291_5114">
			<rect id="Icon" width="24.000000" height="24.000000" fill="white" fill-opacity="0"/>
		</clipPath>
	</defs>
	<g clip-path="url(#clip291_5114)">
		<rect id="Frame" width="16.471603" height="21.600000" transform="translate(3.839844 0.959961)" fill="#FFFFFF" fill-opacity="0"/>
		<g clip-path="url(#clip291_5115)">
			<g filter="url(#filter_291_5116_dd)">
				<path id="Vector" d="M3.83984 11.7498C3.83984 8.86176 3.83984 5.96692 3.83984 3.0788C3.83984 1.73596 4.61572 0.959961 5.95215 0.959961C10.0342 0.959961 14.1167 0.959961 18.1992 0.959961C19.5356 0.959961 20.3115 1.73596 20.3115 3.0788C20.3115 8.87524 20.3115 14.6649 20.3115 20.4614C20.3115 21.7772 19.5288 22.5599 18.2197 22.5599C14.1235 22.5599 10.0342 22.5599 5.93848 22.5599C4.62939 22.5599 3.84668 21.7704 3.84668 20.4614C3.83984 17.5598 3.83984 14.6514 3.83984 11.7498ZM10.2031 20.0025C11.458 20.0025 12.6997 20.0025 13.9414 20.0025C13.9414 19.5842 13.9414 19.1995 13.9414 18.8014C12.6797 18.8014 11.4448 18.8014 10.2031 18.8014C10.2031 19.213 10.2031 19.6044 10.2031 20.0025Z" fill="#E60000" fill-opacity="1.000000" fill-rule="nonzero"/>
			</g>
			<path id="Vector" d="M3.83984 11.7498L3.83984 3.0788C3.83984 1.73596 4.61572 0.959961 5.95215 0.959961L18.1992 0.959961C19.5356 0.959961 20.3115 1.73596 20.3115 3.0788L20.3115 20.4614C20.3115 21.7772 19.5288 22.5599 18.2197 22.5599L5.93848 22.5599C4.62939 22.5599 3.84668 21.7704 3.84668 20.4614C3.83984 17.5598 3.83984 14.6514 3.83984 11.7498ZM4.83984 7.41968L4.83984 3.0788Q4.83984 2.48566 5.10303 2.22211Q5.36426 1.95996 5.95215 1.95996L12.7559 1.95996L18.1992 1.95996Q18.7871 1.95996 19.0483 2.22211Q19.3115 2.48566 19.3115 3.0788L19.3115 20.4614Q19.3115 21.0342 19.0483 21.2979Q18.7871 21.5599 18.2197 21.5599L5.93848 21.5599Q5.37305 21.5599 5.11035 21.2961Q4.84668 21.0311 4.84668 20.4614L4.84082 16.1124L4.83984 11.7496L4.83984 7.41968ZM14.9414 21.0025L14.9414 17.8014L9.20312 17.8014L9.20312 21.0025L14.9414 21.0025ZM11.2031 20.0025L12.9414 20.0025L13.9414 20.0025L13.9414 18.8014L12.9414 18.8014L11.2031 18.8014L10.2031 18.8014L10.2031 20.0025L11.2031 20.0025Z" fill="#E60000" fill-opacity="1.000000" fill-rule="evenodd"/>
		</g>
	</g>
</svg>
