<svg width="24.000000" height="24.000000" viewBox="0 0 24 24" fill="none" xmlns="http://www.w3.org/2000/svg" xmlns:xlink="http://www.w3.org/1999/xlink">
	<desc>
			Created with Pixso.
	</desc>
	<defs>
		<filter id="filter_291_5108_dd" x="6.236816" y="0.961670" width="11.792969" height="21.603394" filterUnits="userSpaceOnUse" color-interpolation-filters="sRGB">
			<feFlood flood-opacity="0" result="BackgroundImageFix"/>
			<feGaussianBlur in="BackgroundImage" stdDeviation="4"/>
			<feComposite in2="SourceAlpha" operator="in" result="effect_backgroundBlur_1"/>
			<feBlend mode="normal" in="SourceGraphic" in2="effect_backgroundBlur_1" result="shape"/>
		</filter>
		<clipPath id="clip291_5107">
			<rect id="Frame" width="11.784885" height="21.600000" transform="translate(6.240234 0.959961)" fill="white" fill-opacity="0"/>
		</clipPath>
		<clipPath id="clip291_5106">
			<rect id="Icon" width="24.000000" height="24.000000" fill="white" fill-opacity="0"/>
		</clipPath>
	</defs>
	<g clip-path="url(#clip291_5106)">
		<rect id="Frame" width="11.784885" height="21.600000" transform="translate(6.240234 0.959961)" fill="#FFFFFF" fill-opacity="0"/>
		<g clip-path="url(#clip291_5107)">
			<g filter="url(#filter_291_5108_dd)">
				<path id="Vector" d="M6.23975 11.76C6.23975 8.974 6.23291 6.18121 6.23975 3.3952C6.23975 2.24841 6.81982 1.41193 7.83838 1.08142C8.08154 1.00049 8.34473 0.966736 8.60107 0.966736C10.9551 0.959961 13.3096 0.959961 15.6567 0.966736C17.0264 0.97345 18.0249 1.96509 18.0249 3.32776C18.0312 8.95374 18.0312 14.573 18.0249 20.199C18.0249 21.5616 17.0264 22.56 15.6636 22.56C13.3364 22.5667 11.0093 22.5667 8.68164 22.56C7.22461 22.56 6.25342 21.6021 6.24658 20.1315C6.23291 17.3387 6.23975 14.5527 6.23975 11.76ZM12.1357 2.92303C11.6768 2.92303 11.2183 2.92303 10.7529 2.92303C10.3887 2.92975 10.186 3.09839 10.1792 3.3952C10.1724 3.69879 10.3613 3.9079 10.7124 3.9079C11.6567 3.92139 12.5942 3.92139 13.5386 3.9079C13.876 3.90112 14.1055 3.67181 14.0918 3.3952C14.0786 3.11188 13.856 2.92303 13.5117 2.92303C13.0532 2.92303 12.5942 2.92303 12.1357 2.92303ZM12.1357 18.6475C11.5825 18.6475 11.144 19.0859 11.1509 19.6255C11.1577 20.1652 11.6094 20.6037 12.1489 20.597C12.6753 20.5902 13.1001 20.1585 13.1001 19.6255C13.1069 19.0657 12.689 18.6475 12.1357 18.6475Z" fill="#E60000" fill-opacity="1.000000" fill-rule="nonzero"/>
			</g>
			<path id="Vector" d="M6.23975 11.76C6.23975 10.8315 6.23926 9.9024 6.23828 8.97296C6.23682 7.1134 6.23535 5.25281 6.23975 3.3952C6.23975 2.24841 6.81982 1.41193 7.83838 1.08142C8.08154 1.00049 8.34473 0.966736 8.60107 0.966736C10.9551 0.959961 13.3096 0.959961 15.6567 0.966736C17.0264 0.97345 18.0249 1.96509 18.0249 3.32776C18.0312 8.95374 18.0312 14.573 18.0249 20.199C18.0249 21.5616 17.0264 22.56 15.6636 22.56Q13.8828 22.5651 12.1016 22.5651L12.0532 22.5651Q10.3677 22.5649 8.68164 22.56C7.22461 22.56 6.25342 21.6021 6.24658 20.1315C6.23633 18.0372 6.23779 15.9466 6.23877 13.8541C6.23926 13.1564 6.23975 12.4584 6.23975 11.76ZM10.3477 1.96674L8.60107 1.96674Q8.34473 1.96674 8.14746 2.03259Q7.76709 2.15588 7.54639 2.41492Q7.23975 2.77441 7.23975 3.3952L7.23975 3.39581L7.2373 7.57825L7.23975 11.7604L7.23828 15.9443L7.24658 20.1269Q7.24951 20.7495 7.55762 21.1144Q7.58984 21.1526 7.62549 21.188Q7.66113 21.2238 7.7002 21.2562Q8.06543 21.56 8.68311 21.56L11.7769 21.5644Q11.7725 21.5636 11.7686 21.5627Q11.5737 21.5258 11.3867 21.449Q11.2178 21.3797 11.0669 21.2828Q10.8989 21.175 10.7529 21.0332Q10.605 20.8893 10.4917 20.722Q10.3921 20.5754 10.3193 20.4108Q10.2373 20.2256 10.1953 20.0317Q10.1533 19.8392 10.1509 19.6381Q10.1479 19.4219 10.1909 19.2151Q10.2285 19.034 10.3013 18.8601Q10.3721 18.69 10.4717 18.5387Q10.582 18.3704 10.728 18.2253Q10.8613 18.0925 11.0146 17.9888Q11.1772 17.8786 11.3623 17.8014Q11.5244 17.7338 11.6934 17.6959Q11.9092 17.6474 12.1357 17.6474Q12.3984 17.6474 12.645 17.7112Q12.7749 17.7449 12.9004 17.7964Q13.0972 17.8772 13.2681 17.9956Q13.4126 18.0958 13.5386 18.2229Q13.6646 18.3505 13.7637 18.4965Q13.8804 18.6689 13.9595 18.867Q14.0371 19.062 14.0718 19.2644Q14.1025 19.4421 14.1001 19.6255Q14.1001 19.8368 14.0571 20.0389Q14.0195 20.2156 13.9487 20.3854Q13.8765 20.559 13.7749 20.7133Q13.6709 20.8712 13.5361 21.0088Q13.396 21.1514 13.2339 21.2611Q13.0864 21.361 12.9204 21.4336Q12.748 21.5089 12.5679 21.5494Q12.5308 21.5578 12.4937 21.5647L15.6636 21.56Q15.9736 21.56 16.2339 21.4551Q16.4048 21.3862 16.5435 21.2764Q16.5981 21.2331 16.6479 21.1833Q16.6978 21.1336 16.7412 21.0788Q16.8511 20.9401 16.9199 20.7691Q17.0249 20.5088 17.0249 20.1984L17.0298 11.7699L17.0249 3.32776Q17.0249 3.01843 16.9199 2.75946Q16.8535 2.59418 16.748 2.45911Q16.7021 2.40033 16.6484 2.34729Q16.6069 2.30591 16.562 2.26886Q16.4155 2.14868 16.231 2.07452Q15.9673 1.96826 15.6567 1.96674L13.9199 1.96674Q14.1079 2.00946 14.2754 2.09387Q14.4272 2.17029 14.5615 2.28094Q14.6909 2.38739 14.79 2.51672Q14.8779 2.63074 14.9424 2.76257Q14.9912 2.86273 15.0244 2.9679Q15.0815 3.14972 15.0908 3.3465Q15.0991 3.51984 15.0684 3.68579Q15.041 3.83136 14.9834 3.97131Q14.9312 4.09802 14.8579 4.211Q14.7642 4.35602 14.6348 4.47833Q14.5576 4.55188 14.4712 4.61334Q14.3159 4.72412 14.1323 4.79559Q14.106 4.80591 14.0796 4.81519Q13.8306 4.90228 13.5532 4.90778Q12.1255 4.92816 10.7124 4.9079Q10.4067 4.9079 10.1382 4.81024Q9.94238 4.73895 9.77979 4.62164Q9.68652 4.55457 9.60449 4.47247Q9.5083 4.37622 9.43311 4.26562Q9.33154 4.11578 9.26855 3.93964Q9.25635 3.90485 9.24561 3.86957Q9.17383 3.63275 9.17969 3.3725Q9.18555 3.11432 9.26904 2.8844Q9.28613 2.83722 9.30664 2.7912Q9.37402 2.64001 9.47119 2.51184Q9.56836 2.38422 9.69531 2.27936Q9.77539 2.21301 9.86328 2.159Q10.082 2.02466 10.3477 1.96674ZM10.8174 3.90936C10.7827 3.90887 10.7476 3.90839 10.7124 3.9079C10.3613 3.9079 10.1724 3.69879 10.1792 3.3952C10.186 3.09839 10.3887 2.92975 10.7529 2.92303L13.5117 2.92303C13.856 2.92303 14.0786 3.11188 14.0918 3.3952C14.1055 3.67181 13.876 3.90112 13.5386 3.9079C13.5059 3.90839 13.4731 3.90881 13.4404 3.90924C12.5645 3.9209 11.6938 3.92096 10.8174 3.90936ZM12.1357 18.6475C11.5825 18.6475 11.144 19.0859 11.1509 19.6255C11.1577 20.1652 11.6094 20.6037 12.1489 20.597C12.6753 20.5902 13.1001 20.1585 13.1001 19.6255C13.1069 19.0657 12.689 18.6475 12.1357 18.6475ZM10.7178 2.90796L10.7124 2.9079L10.7178 2.90796Z" fill="#E60000" fill-opacity="1.000000" fill-rule="evenodd"/>
		</g>
	</g>
</svg>
