<svg width="24.000000" height="24.000000" viewBox="0 0 24 24" fill="none" xmlns="http://www.w3.org/2000/svg" xmlns:xlink="http://www.w3.org/1999/xlink">
	<desc>
			Created with Pixso.
	</desc>
	<defs>
		<filter id="filter_291_5156_dd" x="2.041992" y="4.199951" width="20.164062" height="15.118408" filterUnits="userSpaceOnUse" color-interpolation-filters="sRGB">
			<feFlood flood-opacity="0" result="BackgroundImageFix"/>
			<feGaussianBlur in="BackgroundImage" stdDeviation="4"/>
			<feComposite in2="SourceAlpha" operator="in" result="effect_backgroundBlur_1"/>
			<feBlend mode="normal" in="SourceGraphic" in2="effect_backgroundBlur_1" result="shape"/>
		</filter>
		<clipPath id="clip291_5155">
			<rect id="Frame" width="20.160000" height="15.120001" transform="translate(2.040039 4.199951)" fill="white" fill-opacity="0"/>
		</clipPath>
		<clipPath id="clip291_5154">
			<rect id="Icon" width="24.000000" height="24.000000" fill="white" fill-opacity="0"/>
		</clipPath>
	</defs>
	<g clip-path="url(#clip291_5154)">
		<rect id="Frame" width="20.160000" height="15.120001" transform="translate(2.040039 4.199951)" fill="#FFFFFF" fill-opacity="0"/>
		<g clip-path="url(#clip291_5155)">
			<g filter="url(#filter_291_5156_dd)">
				<mask id="mask_291_5156" fill="white">
					<path id="Union" d="M11.5869 7.55646C11.7617 7.55576 11.9365 7.55505 12.1104 7.55505C12.2905 7.55505 12.4712 7.55576 12.6523 7.55644C13.0161 7.55785 13.3823 7.55925 13.748 7.55505C14.3145 7.54247 14.6357 7.22144 14.6421 6.64861Q14.647 6.27054 14.647 5.89247Q14.647 5.51517 14.6421 5.13786C14.6421 4.53987 14.3086 4.19995 13.71 4.19995L10.5298 4.19995C9.9375 4.20625 9.60986 4.53987 9.60352 5.14417L9.60352 6.62343C9.60352 7.22772 9.9248 7.54877 10.5356 7.55505C10.8848 7.55925 11.2363 7.55785 11.5869 7.55646ZM5.59814 9.24205L18.6665 9.24205C19.8257 9.24205 20.5059 9.91559 20.5181 11.0675C20.5244 11.6592 20.6255 11.7536 21.2173 11.7599C21.8784 11.7599 22.2061 12.081 22.2061 12.7356L22.2061 15.8201C22.2061 16.4747 21.8784 16.7957 21.2173 16.7957C20.6255 16.7957 20.5244 16.8965 20.5181 17.4882C20.5117 18.6401 19.8257 19.3199 18.6665 19.3137C17.7222 19.3074 16.7773 19.3074 15.8389 19.2633C15.291 19.2381 14.8062 18.9989 14.3716 18.6779C13.937 18.3632 13.5146 18.0358 13.0864 17.7211C12.4253 17.2238 11.8457 17.2238 11.1846 17.7148C10.7627 18.0295 10.3472 18.3443 9.9248 18.659C9.33301 19.0933 8.66553 19.3137 7.92871 19.3137Q7.31445 19.3184 6.7002 19.3184L6.69043 19.3184L6.68408 19.3184Q6.07812 19.3183 5.47217 19.3137C4.45215 19.3074 3.75293 18.6149 3.73389 17.5952L3.73389 17.3119C3.71533 16.9468 3.57031 16.8083 3.20508 16.7957L2.89014 16.7957C2.39893 16.7706 2.05225 16.4432 2.05225 15.9586C2.04004 14.8381 2.04004 13.7113 2.0459 12.5909C2.05225 12.1187 2.39258 11.7914 2.8584 11.7599C2.90869 11.7558 2.95605 11.7571 3.00439 11.7585C3.02881 11.7592 3.05371 11.7599 3.0791 11.7599C3.60156 11.7599 3.72119 11.6404 3.72754 11.1116C3.74023 9.903 4.40137 9.24205 5.59814 9.24205Z" clip-rule="evenodd" fill="" fill-opacity="1.000000" fill-rule="evenodd"/>
				</mask>
				<path id="Union" d="M11.5869 7.55646C11.7617 7.55576 11.9365 7.55505 12.1104 7.55505C12.2905 7.55505 12.4712 7.55576 12.6523 7.55644C13.0161 7.55785 13.3823 7.55925 13.748 7.55505C14.3145 7.54247 14.6357 7.22144 14.6421 6.64861Q14.647 6.27054 14.647 5.89247Q14.647 5.51517 14.6421 5.13786C14.6421 4.53987 14.3086 4.19995 13.71 4.19995L10.5298 4.19995C9.9375 4.20625 9.60986 4.53987 9.60352 5.14417L9.60352 6.62343C9.60352 7.22772 9.9248 7.54877 10.5356 7.55505C10.8848 7.55925 11.2363 7.55785 11.5869 7.55646ZM5.59814 9.24205L18.6665 9.24205C19.8257 9.24205 20.5059 9.91559 20.5181 11.0675C20.5244 11.6592 20.6255 11.7536 21.2173 11.7599C21.8784 11.7599 22.2061 12.081 22.2061 12.7356L22.2061 15.8201C22.2061 16.4747 21.8784 16.7957 21.2173 16.7957C20.6255 16.7957 20.5244 16.8965 20.5181 17.4882C20.5117 18.6401 19.8257 19.3199 18.6665 19.3137C17.7222 19.3074 16.7773 19.3074 15.8389 19.2633C15.291 19.2381 14.8062 18.9989 14.3716 18.6779C13.937 18.3632 13.5146 18.0358 13.0864 17.7211C12.4253 17.2238 11.8457 17.2238 11.1846 17.7148C10.7627 18.0295 10.3472 18.3443 9.9248 18.659C9.33301 19.0933 8.66553 19.3137 7.92871 19.3137Q7.31445 19.3184 6.7002 19.3184L6.69043 19.3184L6.68408 19.3184Q6.07812 19.3183 5.47217 19.3137C4.45215 19.3074 3.75293 18.6149 3.73389 17.5952L3.73389 17.3119C3.71533 16.9468 3.57031 16.8083 3.20508 16.7957L2.89014 16.7957C2.39893 16.7706 2.05225 16.4432 2.05225 15.9586C2.04004 14.8381 2.04004 13.7113 2.0459 12.5909C2.05225 12.1187 2.39258 11.7914 2.8584 11.7599C2.90869 11.7558 2.95605 11.7571 3.00439 11.7585C3.02881 11.7592 3.05371 11.7599 3.0791 11.7599C3.60156 11.7599 3.72119 11.6404 3.72754 11.1116C3.74023 9.903 4.40137 9.24205 5.59814 9.24205Z" clip-rule="evenodd" fill="#E60000" fill-opacity="1.000000" fill-rule="evenodd" mask="url(#mask_291_5156)"/>
			</g>
			<path id="Union" d="M3.73389 17.3119L3.73389 17.5952C3.75293 18.6149 4.45215 19.3074 5.47217 19.3137Q6.07812 19.3183 6.68408 19.3184L6.7002 19.3184Q7.31445 19.3184 7.92871 19.3137C8.66553 19.3137 9.33301 19.0933 9.9248 18.659C10.3472 18.3443 10.7627 18.0295 11.1846 17.7148C11.8457 17.2238 12.4253 17.2238 13.0864 17.7211C13.5146 18.0358 13.937 18.3632 14.3716 18.6779C14.8062 18.9989 15.291 19.2381 15.8389 19.2633C16.7773 19.3074 17.7222 19.3074 18.6665 19.3137C19.8257 19.3199 20.5117 18.6401 20.5181 17.4882C20.5244 16.8965 20.6255 16.7957 21.2173 16.7957C21.8784 16.7957 22.2061 16.4747 22.2061 15.8201L22.2061 12.7356C22.2061 12.081 21.8784 11.7599 21.2173 11.7599C20.6255 11.7536 20.5244 11.6592 20.5181 11.0675C20.5059 9.91559 19.8257 9.24205 18.6665 9.24205L5.59814 9.24205C4.40137 9.24205 3.74023 9.903 3.72754 11.1116C3.72119 11.6404 3.60156 11.7599 3.0791 11.7599C3.05371 11.7599 3.02881 11.7592 3.00439 11.7585L3.00407 11.7585C2.95584 11.7571 2.90858 11.7558 2.8584 11.7599C2.39258 11.7914 2.05225 12.1187 2.0459 12.5909C2.04004 13.7113 2.04004 14.8381 2.05225 15.9586C2.05225 16.4432 2.39893 16.7706 2.89014 16.7957L3.20508 16.7957C3.57031 16.8083 3.71533 16.9468 3.73389 17.3119ZM3.05125 15.7957L3.22217 15.7957L3.23926 15.7963Q3.78362 15.8151 4.14903 16.0804Q4.22676 16.1368 4.29639 16.2044Q4.37358 16.2794 4.4372 16.3646Q4.70481 16.7228 4.73242 17.2603L4.73389 17.2861L4.73389 17.5767Q4.73993 17.9181 4.91293 18.1052Q4.92159 18.1145 4.93066 18.1235Q4.94173 18.1344 4.95336 18.1447Q5.14173 18.3116 5.47607 18.3137L6.68408 18.3184L6.69043 18.3184L6.69678 18.3184L7.92871 18.3137Q8.33595 18.3137 8.7002 18.1885Q9.03036 18.0751 9.3252 17.8589L9.9502 17.3904L10.5884 16.9119Q11.3054 16.3796 12.0432 16.3492Q12.0907 16.3472 12.1382 16.3473Q12.2047 16.3475 12.271 16.3517Q12.9898 16.3971 13.6787 16.9153Q13.8716 17.0572 14.251 17.3426Q14.7222 17.6971 14.9653 17.8736Q15.4688 18.2452 15.8857 18.2644Q16.6865 18.302 18.3184 18.3115Q18.5552 18.3129 18.6719 18.3137Q19.127 18.3161 19.3223 18.1236Q19.5156 17.9324 19.5186 17.4775Q19.522 17.1443 19.5684 16.9236Q19.6404 16.583 19.8325 16.3357Q19.8839 16.2695 19.9438 16.21Q20.0061 16.1483 20.0754 16.096Q20.3235 15.9086 20.6616 15.8404Q20.88 15.7965 21.2061 15.7958L21.2061 12.7599Q20.8753 12.7563 20.6587 12.712Q20.315 12.6417 20.0653 12.4494Q20.0031 12.4015 19.9468 12.3461Q19.8842 12.2846 19.831 12.2159Q19.6406 11.9701 19.5688 11.6323Q19.522 11.4117 19.5186 11.0785Q19.5132 10.6256 19.3198 10.4345Q19.125 10.2421 18.6665 10.2421L5.59814 10.2421Q5.11475 10.2421 4.92578 10.4309Q4.73291 10.6238 4.72754 11.1235Q4.72363 11.4403 4.67041 11.6665Q4.59587 11.9799 4.41664 12.2129Q4.36459 12.2805 4.30371 12.3413Q4.23698 12.408 4.16222 12.464Q3.9312 12.637 3.62354 12.7076Q3.396 12.7599 3.0791 12.7599Q3.06399 12.7599 3.04551 12.7597L3.04199 14.2781L3.05125 15.7957ZM12.1104 7.55505C11.9365 7.55505 11.7617 7.55576 11.5869 7.55646L11.5848 7.55647C11.2349 7.55785 10.8841 7.55924 10.5356 7.55505C9.9248 7.54877 9.60352 7.22772 9.60352 6.62343L9.60352 5.14417C9.60986 4.53987 9.9375 4.20625 10.5298 4.19995L13.71 4.19995C14.3086 4.19995 14.6421 4.53987 14.6421 5.13786Q14.647 5.51517 14.647 5.89247Q14.647 6.27054 14.6421 6.64861C14.6357 7.22144 14.3145 7.54247 13.748 7.55505C13.3823 7.55925 13.0161 7.55785 12.6523 7.55644C12.4712 7.55576 12.2905 7.55505 12.1104 7.55505ZM12.1079 6.55505L11.584 6.55646L11.5825 6.55646Q10.9443 6.55901 10.6035 6.55573L10.6035 5.19995L13.6427 5.19995Q13.6459 5.45812 13.6467 5.71625Q13.647 5.80437 13.647 5.89249Q13.647 6.22364 13.6431 6.55602Q13.2898 6.55889 12.6553 6.55646L12.1079 6.55505ZM13.6375 6.69456L13.6372 6.69591L13.6375 6.69456Z" clip-rule="evenodd" fill="#E60000" fill-opacity="1.000000" fill-rule="evenodd"/>
		</g>
	</g>
</svg>
