<svg width="24.000000" height="24.000000" viewBox="0 0 24 24" fill="none" xmlns="http://www.w3.org/2000/svg" xmlns:xlink="http://www.w3.org/1999/xlink">
	<desc>
			Created with Pixso.
	</desc>
	<defs>
		<filter id="filter_291_5125_dd" x="1.673340" y="4.080078" width="20.773438" height="15.362427" filterUnits="userSpaceOnUse" color-interpolation-filters="sRGB">
			<feFlood flood-opacity="0" result="BackgroundImageFix"/>
			<feGaussianBlur in="BackgroundImage" stdDeviation="4"/>
			<feComposite in2="SourceAlpha" operator="in" result="effect_backgroundBlur_1"/>
			<feBlend mode="normal" in="SourceGraphic" in2="effect_backgroundBlur_1" result="shape"/>
		</filter>
		<clipPath id="clip291_5123">
			<rect id="Frame" width="20.759998" height="15.360001" transform="translate(1.680176 4.080078)" fill="white" fill-opacity="0"/>
		</clipPath>
		<clipPath id="clip291_5122">
			<rect id="Icon" width="24.000000" height="24.000000" fill="white" fill-opacity="0"/>
		</clipPath>
	</defs>
	<g clip-path="url(#clip291_5122)">
		<rect id="Frame" width="20.759998" height="15.360001" transform="translate(1.680176 4.080078)" fill="#FFFFFF" fill-opacity="0"/>
		<g clip-path="url(#clip291_5123)">
			<g filter="url(#filter_291_5125_dd)">
				<mask id="mask_291_5125" fill="white">
					<path id="Union" d="M1.68018 14.2955L1.68018 4.9978C1.68018 4.36142 1.95459 4.08008 2.60449 4.08008L21.5225 4.08008C22.1655 4.08008 22.4468 4.36142 22.4468 4.99109L22.4468 14.2888C15.5225 14.2955 8.62451 14.2955 1.68018 14.2955ZM10.5869 11.4687C11.7456 10.7988 12.8438 10.1624 13.9956 9.4993C12.8369 8.82941 11.7251 8.19305 10.5869 7.52988L10.5869 11.4687ZM19.6138 18.9645C19.4468 18.4487 19.2256 17.953 19.0044 17.3903L19.0049 17.3903C19.9087 17.3903 20.7593 17.3903 21.5962 17.3836C22.0518 17.3769 22.3999 17.1223 22.4199 16.7137C22.4429 16.3248 22.4375 15.9327 22.4316 15.5374C22.4292 15.3607 22.4268 15.1835 22.4268 15.0056L1.67334 15.0056L1.67334 16.4257C1.67334 17.1022 1.95459 17.3836 2.62451 17.3836L5.10889 17.3836C4.90137 17.9061 4.70703 18.3884 4.5127 18.8707C4.43262 19.0851 4.39893 19.2994 4.66699 19.3999C4.92773 19.5004 5.05518 19.3262 5.14209 19.1118C5.34326 18.6161 5.55762 18.1271 5.73828 17.6248C5.81201 17.4305 5.9126 17.3836 6.10645 17.3836Q9.25244 17.3889 12.3984 17.3886Q15.2095 17.3883 18.02 17.3836C18.2275 17.3836 18.3149 17.4506 18.3818 17.6382C18.5557 18.1003 18.7437 18.5492 18.9312 19.0047C18.9644 19.0783 18.9912 19.1453 19.0249 19.219C19.1118 19.4133 19.2925 19.507 19.4531 19.3932C19.5605 19.3195 19.6543 19.0851 19.6138 18.9645ZM14.5913 16.3252L12.0469 16.3252C11.7656 16.3252 11.4839 16.3245 11.2017 16.3237C10.6372 16.3222 10.0713 16.3207 9.50879 16.3252C9.28076 16.3252 9.06006 16.2984 9.05322 16.0104C9.04639 15.7156 9.26758 15.6553 9.51514 15.6553L14.5981 15.6553C14.8394 15.6553 15.0669 15.7089 15.0669 16.0037C15.0669 16.3118 14.8257 16.3252 14.5913 16.3252Z" clip-rule="evenodd" fill="" fill-opacity="1.000000" fill-rule="evenodd"/>
				</mask>
				<path id="Union" d="M1.68018 14.2955L1.68018 4.9978C1.68018 4.36142 1.95459 4.08008 2.60449 4.08008L21.5225 4.08008C22.1655 4.08008 22.4468 4.36142 22.4468 4.99109L22.4468 14.2888C15.5225 14.2955 8.62451 14.2955 1.68018 14.2955ZM10.5869 11.4687C11.7456 10.7988 12.8438 10.1624 13.9956 9.4993C12.8369 8.82941 11.7251 8.19305 10.5869 7.52988L10.5869 11.4687ZM19.6138 18.9645C19.4468 18.4487 19.2256 17.953 19.0044 17.3903L19.0049 17.3903C19.9087 17.3903 20.7593 17.3903 21.5962 17.3836C22.0518 17.3769 22.3999 17.1223 22.4199 16.7137C22.4429 16.3248 22.4375 15.9327 22.4316 15.5374C22.4292 15.3607 22.4268 15.1835 22.4268 15.0056L1.67334 15.0056L1.67334 16.4257C1.67334 17.1022 1.95459 17.3836 2.62451 17.3836L5.10889 17.3836C4.90137 17.9061 4.70703 18.3884 4.5127 18.8707C4.43262 19.0851 4.39893 19.2994 4.66699 19.3999C4.92773 19.5004 5.05518 19.3262 5.14209 19.1118C5.34326 18.6161 5.55762 18.1271 5.73828 17.6248C5.81201 17.4305 5.9126 17.3836 6.10645 17.3836Q9.25244 17.3889 12.3984 17.3886Q15.2095 17.3883 18.02 17.3836C18.2275 17.3836 18.3149 17.4506 18.3818 17.6382C18.5557 18.1003 18.7437 18.5492 18.9312 19.0047C18.9644 19.0783 18.9912 19.1453 19.0249 19.219C19.1118 19.4133 19.2925 19.507 19.4531 19.3932C19.5605 19.3195 19.6543 19.0851 19.6138 18.9645ZM14.5913 16.3252L12.0469 16.3252C11.7656 16.3252 11.4839 16.3245 11.2017 16.3237C10.6372 16.3222 10.0713 16.3207 9.50879 16.3252C9.28076 16.3252 9.06006 16.2984 9.05322 16.0104C9.04639 15.7156 9.26758 15.6553 9.51514 15.6553L14.5981 15.6553C14.8394 15.6553 15.0669 15.7089 15.0669 16.0037C15.0669 16.3118 14.8257 16.3252 14.5913 16.3252Z" clip-rule="evenodd" fill="#E60000" fill-opacity="1.000000" fill-rule="evenodd" mask="url(#mask_291_5125)"/>
			</g>
			<path id="Union" d="M1.67334 15.2955L1.67334 16.4257C1.67334 17.1022 1.95459 17.3836 2.62451 17.3836L5.10889 17.3836C4.97101 17.7308 4.83895 18.0602 4.70885 18.3836C4.70136 18.4022 4.69388 18.4208 4.68641 18.4394C4.62827 18.5839 4.57048 18.7273 4.5127 18.8707C4.43262 19.0851 4.39893 19.2994 4.66699 19.3999C4.92386 19.4989 5.05136 19.3313 5.13819 19.1214C5.1395 19.1182 5.1408 19.115 5.14209 19.1118C5.1427 19.1103 5.14332 19.1088 5.14393 19.1073C5.19945 18.9706 5.25596 18.8344 5.31248 18.6982C5.46021 18.3423 5.60801 17.987 5.73828 17.6248C5.81201 17.4305 5.9126 17.3836 6.10645 17.3836Q6.14624 17.3837 6.18604 17.3837Q9.13616 17.3886 12.0873 17.3886L12.3984 17.3886Q15.1634 17.3883 17.9276 17.3838Q17.9738 17.3837 18.02 17.3836C18.2275 17.3836 18.3149 17.4506 18.3818 17.6382C18.5104 17.9799 18.6467 18.3144 18.7848 18.6497C18.8334 18.7678 18.8823 18.886 18.9312 19.0047C18.9644 19.0783 18.9912 19.1453 19.0249 19.219C19.1118 19.4133 19.2925 19.507 19.4531 19.3932C19.5605 19.3195 19.6543 19.0851 19.6138 18.9645C19.5909 18.8937 19.5669 18.8233 19.5421 18.7531C19.5395 18.7456 19.5368 18.7381 19.5341 18.7306C19.501 18.6376 19.4664 18.5448 19.4306 18.4518C19.4226 18.431 19.4145 18.4101 19.4064 18.3892C19.2812 18.0683 19.1428 17.7424 19.0044 17.3903L19.0049 17.3903C19.1232 17.3903 19.2407 17.3903 19.3573 17.3903C19.6022 17.3902 19.8435 17.3901 20.0819 17.3898C20.597 17.3892 21.099 17.3876 21.5962 17.3836C22.0518 17.3769 22.3999 17.1223 22.4199 16.7137C22.4429 16.3248 22.4375 15.9327 22.4316 15.5374C22.4305 15.4546 22.4294 15.3718 22.4285 15.2888C22.4274 15.1946 22.4268 15.1002 22.4268 15.0056L1.67334 15.0056L1.67334 15.2955ZM2.67334 16.0056L2.67334 16.3836L6.58691 16.3836L6.58675 16.384L8.10444 16.3853Q8.05772 16.2188 8.05322 16.0336Q8.05291 16.0195 8.05285 16.0056L2.67334 16.0056ZM21.4219 16.6554Q21.4216 16.66 21.4214 16.6646Q21.4217 16.66 21.4219 16.6554ZM22.4468 14.0056L22.4468 4.99109C22.4468 4.36142 22.1655 4.08008 21.5225 4.08008L2.60449 4.08008C1.95459 4.08008 1.68018 4.36142 1.68018 4.9978L1.68018 14.2955L2.68018 14.2955C9.28699 14.2955 15.8549 14.2952 22.4468 14.2888L22.4468 14.0056ZM21.4468 13.2895L21.4468 5.08008L2.68018 5.08008L2.68018 13.2954L14.8994 13.2938L21.4468 13.2895ZM9.58691 5.79471L9.58691 13.2023L11.0874 12.3343L12.9146 11.2777L15.9966 9.49902L12.4092 7.43002L9.58691 5.79471ZM11.5869 10.8903C11.2568 11.0813 10.9244 11.2736 10.5869 11.4687L10.5869 7.52988C10.9219 7.72507 11.2546 7.91793 11.5869 8.11001C12.0554 8.3808 12.523 8.65003 12.995 8.92202C13.3258 9.1126 13.6587 9.30453 13.9956 9.4993C13.6583 9.69346 13.3257 9.88533 12.9948 10.0764C12.5247 10.3479 12.0582 10.6177 11.5869 10.8903ZM9.05313 16.0056L9.05322 16.0104C9.06006 16.2984 9.28076 16.3252 9.50879 16.3252C10.0713 16.3207 10.6372 16.3222 11.2017 16.3237C11.4839 16.3245 11.7656 16.3252 12.0469 16.3252L14.1619 16.3252Q14.181 16.3578 14.2028 16.3876L16.0169 16.3857Q16.0667 16.2063 16.0669 16.0056L21.4355 16.0056Q21.4356 16.2173 21.432 16.384L19.0049 16.3903L18.173 16.3903Q18.0979 16.3836 18.019 16.3836L16.0169 16.3857L15.0669 16.0056L15.0669 16.0037C15.0669 15.7089 14.8394 15.6553 14.5981 15.6553L9.51514 15.6553C9.26893 15.6553 9.04879 15.715 9.05313 16.0056Z" clip-rule="evenodd" fill="#E60000" fill-opacity="1.000000" fill-rule="evenodd"/>
		</g>
	</g>
</svg>
